<svg xmlns="http://www.w3.org/2000/svg" width="224" height="224" viewBox="0 0 224 224" fill="none">
  <rect width="224" height="224" fill="#1E293B"/>
  <path d="M112 64C138.5 64 160 85.5 160 112C160 138.5 138.5 160 112 160C85.5 160 64 138.5 64 112C64 85.5 85.5 64 112 64ZM112 74C91 74 74 91 74 112C74 133 91 150 112 150C133 150 150 133 150 112C150 91 133 74 112 74Z" fill="url(#paint0_linear_1_2)"/>
  <path d="M101.6 122.4L84 140L140 140L118.4 118.4L107.2 129.6L101.6 122.4Z" fill="url(#paint1_linear_1_2)"/>
  <defs>
    <linearGradient id="paint0_linear_1_2" x1="64" y1="64" x2="160" y2="160" gradientUnits="userSpaceOnUse">
      <stop stop-color="#22C55E"/>
      <stop offset="1" stop-color="#10B981"/>
    </linearGradient>
    <linearGradient id="paint1_linear_1_2" x1="84" y1="118.4" x2="140" y2="140" gradientUnits="userSpaceOnUse">
      <stop stop-color="#22C55E"/>
      <stop offset="1" stop-color="#10B981"/>
    </linearGradient>
  </defs>
</svg>
